<svg width="113" height="108" viewBox="0 0 113 108" fill="none" xmlns="http://www.w3.org/2000/svg">
<path d="M18.5 0C24.7 0 30.4 3 33.8 8.1L43.1 21.8C49.4 31.1 63.1 31.1 69.4 21.8L78.6 8.2C82.1 3 87.8 0 94 0C104.2 0 112.5 8.3 112.5 18.5V90.2C112.5 99.7 104.8 107.3 95.4 107.3C85.9 107.3 78.3 99.6 78.3 90.2V68.7L70.4 80.3C63.7 90.2 49.1 90.2 42.3 80.3L34.3 68.6V90.1C34.3 99.6 26.6 107.2 17.2 107.2C7.7 107.3 0 99.7 0 90.2V18.5C0 8.3 8.3 0 18.5 0Z" fill="#BF2849"/>
<path d="M34.3 68.7L42.3 80.4C49.1 90.3 63.6 90.2 70.4 80.4L78.3 68.8V90.3C78.3 99.8 86 107.4 95.4 107.4C104.9 107.4 112.5 99.7 112.5 90.3V18.5C112.5 8.3 104.2 0 94 0C88.8 0 84 2.2 80.5 5.9C77.8 13.9 64.6 49.7 34.3 68.7Z" fill="url(#paint0_linear)"/>
<path d="M78.7 8.1L69.5 21.7C68.6 23 67.5 24.2 66.4 25.1C60.1 47 34.3 68.6 34.3 68.6C64.6 49.6 77.8 13.8 80.5 5.8C81.1 5.1 81.8 4.5 82.5 4C81 5.2 79.7 6.6 78.7 8.1Z" fill="url(#paint1_linear)"/>
<path d="M82.6 3.89999C82.9 3.69999 83.2 3.49999 83.5 3.29999C83.2 3.49999 82.9 3.69999 82.6 3.89999Z" fill="url(#paint2_linear)"/>
<path d="M82.5 3.99999C82.6 3.99999 82.6 3.89999 82.7 3.89999C82.6 3.89999 82.5 3.99999 82.5 3.99999Z" fill="url(#paint3_linear)"/>
<path d="M83.7 3.09999C84.1 2.89999 84.4 2.59999 84.8 2.39999C84.5 2.69999 84.1 2.89999 83.7 3.09999Z" fill="url(#paint4_linear)"/>
<path d="M83.5 3.29999C83.6 3.19999 83.7 3.19999 83.7 3.09999C83.7 3.19999 83.6 3.19999 83.5 3.29999Z" fill="url(#paint5_linear)"/>
<defs>
<linearGradient id="paint0_linear" x1="106.5" y1="14" x2="61.5734" y2="102.827" gradientUnits="userSpaceOnUse">
<stop stop-color="#BF2849"/>
<stop offset="0.5982" stop-color="#CF1D28"/>
<stop offset="1" stop-color="#FF6B00"/>
</linearGradient>
<linearGradient id="paint1_linear" x1="34" y1="69" x2="77.5" y2="8.50001" gradientUnits="userSpaceOnUse">
<stop stop-color="#620000" stop-opacity="0.06"/>
<stop offset="1" stop-color="#350000" stop-opacity="0.25"/>
</linearGradient>
<linearGradient id="paint2_linear" x1="82.6405" y1="4.30119" x2="83.2283" y2="3.33369" gradientUnits="userSpaceOnUse">
<stop stop-color="#5C002B"/>
<stop offset="1" stop-color="white"/>
</linearGradient>
<linearGradient id="paint3_linear" x1="82.4616" y1="4.12559" x2="82.5882" y2="3.9171" gradientUnits="userSpaceOnUse">
<stop stop-color="#5C002B"/>
<stop offset="1" stop-color="white"/>
</linearGradient>
<linearGradient id="paint4_linear" x1="83.7795" y1="3.59989" x2="84.4596" y2="2.48039" gradientUnits="userSpaceOnUse">
<stop stop-color="#5C002B"/>
<stop offset="1" stop-color="white"/>
</linearGradient>
<linearGradient id="paint5_linear" x1="83.5037" y1="3.38719" x2="83.6626" y2="3.12569" gradientUnits="userSpaceOnUse">
<stop stop-color="#5C002B"/>
<stop offset="1" stop-color="white"/>
</linearGradient>
</defs>
</svg>
