<svg width="24" height="24" viewBox="0 0 24 24" fill="none" xmlns="http://www.w3.org/2000/svg">
<g id="phone_24px">
<path id="icon/communication/phone_24px" d="M19.2218 15.2682L16.6818 14.9782C16.0718 14.9082 15.4718 15.1182 15.0418 15.5482L13.2018 17.3882C10.3718 15.9482 8.05179 13.6382 6.61179 10.7982L8.46179 8.94816C8.89179 8.51816 9.10179 7.91816 9.03179 7.30816L8.74179 4.78816C8.62179 3.77816 7.77179 3.01816 6.75179 3.01816H5.02179C3.89179 3.01816 2.95179 3.95816 3.02179 5.08816C3.55179 13.6282 10.3818 20.4482 18.9118 20.9782C20.0418 21.0482 20.9818 20.1082 20.9818 18.9782V17.2482C20.9918 16.2382 20.2318 15.3882 19.2218 15.2682Z" fill="#BF2849"/>
</g>
</svg>
