<svg width="36" height="36" viewBox="0 0 36 36" fill="none" xmlns="http://www.w3.org/2000/svg">
<path fill-rule="evenodd" clip-rule="evenodd" d="M12.7506 2.22739C9.81849 -0.707123 5.12431 -0.759825 2.19928 2.17551C-0.733094 5.10193 -0.733094 9.85993 2.19928 12.7872C3.66163 14.2501 5.55913 14.986 7.47123 14.986H1.65213C0.737509 14.986 0.00224906 15.7218 0.00224906 16.6372V20.0891C0.00224906 21.0048 0.737592 21.7405 1.65213 21.7405H3.00189V32.9981C3.00189 34.6566 4.34431 36 6.00145 36H29.9988C31.6561 36 32.9982 34.6566 32.9982 32.9981V21.7405H34.3481C35.2626 21.7405 35.9978 21.0047 35.9978 20.089V16.6371C35.9978 15.7218 35.2626 14.9859 34.3481 14.9859H28.5209C30.4409 14.9859 32.3385 14.25 33.8003 12.7871C36.7332 9.85984 36.7332 5.10185 33.8003 2.17543C30.8758 -0.759907 26.1817 -0.707206 23.2494 2.22731L18 7.48093L12.7506 2.22739ZM21.8845 8.78698L25.8441 4.82421C27.3141 3.36047 29.6837 3.36047 31.1537 4.82421C32.6161 6.29515 32.6161 8.66687 31.1537 10.1379C30.4189 10.8655 29.4582 11.2336 28.4989 11.2336H23.0473C22.2218 11.2336 21.5472 10.5578 21.5472 9.73247C21.5473 9.37174 21.6748 9.04941 21.8845 8.78698ZM10.1561 4.82421L13.9957 8.66687L14.003 8.67414C14.2725 8.95186 14.438 9.31969 14.438 9.73247C14.438 10.5578 13.7628 11.2336 12.9383 11.2336H7.50136C6.54118 11.2336 5.58116 10.8655 4.84665 10.1379C3.38413 8.66687 3.38413 6.29515 4.84665 4.82421C6.31634 3.36047 8.68621 3.36047 10.1561 4.82421ZM14.2505 14.9859H21.7495V30.5961C21.7495 31.5118 21.0144 32.2474 20.0998 32.2474H15.9005C14.9859 32.2474 14.2506 31.5118 14.2506 30.5961V14.9859H14.2505Z" fill="#C33030"/>
</svg>
